HIERARCHY
ROOT Hips
{
	OFFSET	0.00	0.00	0.00
	CHANNELS 6 Xposition Yposition Zposition Zrotation Xrotation Yrotation
	JOINT LeftUpLeg
	{
		OFFSET	 0.126116	-0.065224	 0.014019
		CHANNELS 3 Zrotation Xrotation Yrotation
		JOINT LeftLeg
		{
			OFFSET	 0.000000	 0.569914	 0.000000
			CHANNELS 3 Zrotation Xrotation Yrotation
			JOINT LeftFoot
			{
				OFFSET	 0.000000	 0.544423	 0.000000
				CHANNELS 3 Zrotation Xrotation Yrotation
				JOINT LeftToeBase
				{
					OFFSET	 0.000000	 0.207117	 0.000000
					CHANNELS 3 Zrotation Xrotation Yrotation
					End Site
					{
						OFFSET	 0.000000	 0.207117	 0.000000
					}
				}
			}
		}
	}
	JOINT RightUpLeg
	{
		OFFSET	-0.124023	-0.065224	 0.008373
		CHANNELS 3 Zrotation Xrotation Yrotation
		JOINT RightLeg
		{
			OFFSET	 0.000000	 0.570047	 0.000000
			CHANNELS 3 Zrotation Xrotation Yrotation
			JOINT RightFoot
			{
				OFFSET	 0.000000	 0.544354	 0.000000
				CHANNELS 3 Zrotation Xrotation Yrotation
				JOINT RightToeBase
				{
					OFFSET	 0.000000	 0.207540	 0.000000
					CHANNELS 3 Zrotation Xrotation Yrotation
					End Site
					{
						OFFSET	 0.000000	 0.207540	 0.000000
					}
				}
			}
		}
	}
	JOINT Spine
	{
		OFFSET	 0.000184	 0.117403	 0.007763
		CHANNELS 3 Zrotation Xrotation Yrotation
		JOINT Spine1
		{
			OFFSET	 0.000000	 0.137269	 0.000000
			CHANNELS 3 Zrotation Xrotation Yrotation
			JOINT Spine2
			{
				OFFSET	 0.000000	 0.156879	 0.000000
				CHANNELS 3 Zrotation Xrotation Yrotation
				JOINT LeftShoulder
				{
					OFFSET	 0.080501	 0.160143	 0.002496
					CHANNELS 3 Zrotation Xrotation Yrotation
					JOINT LeftArm
					{
						OFFSET	 0.000000	 0.164363	 0.000000
						CHANNELS 3 Zrotation Xrotation Yrotation
						JOINT LeftForeArm
						{
							OFFSET	 0.000000	 0.364576	 0.000000
							CHANNELS 3 Zrotation Xrotation Yrotation
							JOINT LeftHand
							{
								OFFSET	 0.000000	 0.360812	 0.000000
								CHANNELS 3 Zrotation Xrotation Yrotation
								JOINT LeftHandIndex1
								{
									OFFSET	 0.000000	 0.086006	 0.000000
									CHANNELS 3 Zrotation Xrotation Yrotation
									JOINT LeftHandIndex2
									{
										OFFSET	 0.000000	 0.047237	 0.000000
										CHANNELS 3 Zrotation Xrotation Yrotation
										JOINT LeftHandIndex3
										{
											OFFSET	-0.004284	 0.038165	 0.000551
											CHANNELS 3 Zrotation Xrotation Yrotation
											End Site
											{
												OFFSET	-0.004284	 0.038165	 0.000551
											}
										}
									}
								}
							}
						}
					}
				}
				JOINT Neck
				{
					OFFSET	 0.000000	 0.176489	 0.000000
					CHANNELS 3 Zrotation Xrotation Yrotation
					JOINT Head
					{
						OFFSET	 0.000000	 0.077941	 0.001747
						CHANNELS 3 Zrotation Xrotation Yrotation
						End Site
						{
							OFFSET	 0.000000	 0.077941	 0.001747
						}
					}
				}
				JOINT RightShoulder
				{
					OFFSET	-0.080363	 0.159706	-0.000306
					CHANNELS 3 Zrotation Xrotation Yrotation
					JOINT RightArm
					{
						OFFSET	 0.000000	 0.164196	 0.000000
						CHANNELS 3 Zrotation Xrotation Yrotation
						JOINT RightForeArm
						{
							OFFSET	 0.000000	 0.365611	 0.000000
							CHANNELS 3 Zrotation Xrotation Yrotation
							JOINT RightHand
							{
								OFFSET	 0.000000	 0.360648	 0.000000
								CHANNELS 3 Zrotation Xrotation Yrotation
								JOINT RightHandIndex1
								{
									OFFSET	 0.000000	 0.069977	 0.000000
									CHANNELS 3 Zrotation Xrotation Yrotation
									JOINT RightHandIndex2
									{
										OFFSET	 0.000000	 0.052305	 0.000000
										CHANNELS 3 Zrotation Xrotation Yrotation
										JOINT RightHandIndex3
										{
											OFFSET	 0.009002	 0.042196	 0.000782
											CHANNELS 3 Zrotation Xrotation Yrotation
											End Site
											{
												OFFSET	 0.009002	 0.042196	 0.000782
											}
										}
									}
								}
							}
						}
					}
				}
			}
		}
	}
}
MOTION
Frames:    7
Frame Time: 0.03333334
 0.439087	 1.280320	 0.465102	 0.623915	-2.454742	-177.241900	 176.098600	 6.344091	 13.851870	 3.159966	-11.722400	 5.936982	 5.236007	 68.480930	-1.291882	 1.292262	 28.425850	-2.713146	-179.793400	 7.788614	-12.139210	-0.967800	-5.022113	 0.957266	 1.264399	 61.279320	-5.818727	-1.288183	 28.361890	 2.710176	-0.946939	 5.446284	-10.305980	 3.156812	-3.141724	-5.173615	-1.986169	 3.465057	 15.364550	-117.569800	-0.813631	 89.943380	-2.777851	 0.272875	-8.359068	 39.108680	-2.926158	 35.433590	-41.452700	 21.102150	-8.365171	-6.580301	 5.266122	 0.000000	 0.000000	 0.000000	 0.000000	 0.000000	 0.000000	 0.000000	 4.872046	 27.358220	 1.649121	-3.725090	-17.070310	 4.138975	 116.462100	-0.488363	-90.552500	-1.348067	 6.233632	 18.860040	-24.148180	 0.575324	-56.848190	-33.618530	-16.201410	-4.222235	 15.208500	 5.323790	 0.000000	 0.000000	 0.000000	 0.000000	 0.000000	 0.000000	 0.000000
 0.439144	 1.280922	 0.466936	 0.660802	-2.843861	-177.202900	 176.133700	 6.816165	 13.929870	 3.141439	-11.655650	 6.027860	 5.247945	 68.357580	-1.468725	 1.292262	 28.425850	-2.713146	-179.779400	 8.274793	-12.117820	-0.967200	-5.018987	 0.819377	 1.169593	 61.171240	-5.544842	-1.288183	 28.361890	 2.710176	-0.915543	 5.373310	-10.108030	 3.087016	-2.839813	-5.070953	-1.858457	 2.919114	 14.990010	-117.981700	-0.938941	 89.886750	-3.281547	 0.637108	-7.242628	 40.286520	-2.955173	 34.351990	-39.761410	 19.871780	-9.044697	-6.580301	 5.266122	 0.000000	 0.000000	 0.000000	 0.000000	 0.000000	 0.000000	 0.000000	 5.163033	 28.258930	 1.406550	-3.737889	-17.683680	 4.117898	 117.111600	-0.667152	-90.489350	-0.891344	 6.626299	 18.220090	-25.315480	 0.660017	-56.010220	-33.443090	-15.216380	-4.957671	 15.208500	 5.323790	 0.000000	 0.000000	 0.000000	 0.000000	 0.000000	 0.000000	 0.000000
 0.439224	 1.281594	 0.470191	 0.700554	-3.424427	-177.144100	 176.133400	 7.613403	 14.049380	 3.159513	-11.720840	 6.172511	 5.250995	 68.243210	-1.743094	 1.292262	 28.425850	-2.713146	-179.776900	 9.017262	-12.081660	-0.966371	-5.014653	 0.616166	 1.045664	 60.993300	-5.147086	-1.288183	 28.361890	 2.710176	-0.876519	 5.450806	-9.740228	 2.905268	-2.707624	-4.881364	-1.662266	 2.765901	 14.337970	-118.600900	-1.126477	 89.799970	-3.933876	 1.579254	-5.245281	 42.215630	-3.009723	 32.829850	-37.501850	 17.924860	-9.818733	-6.580301	 5.266122	 0.000000	 0.000000	 0.000000	 0.000000	 0.000000	 0.000000	 0.000000	 5.613690	 29.611370	 1.027856	-3.768357	-18.502690	 4.062150	 118.088400	-0.934561	-90.390590	-0.459542	 7.535145	 17.296290	-27.027290	 0.783935	-54.896470	-32.511930	-13.644760	-6.310981	 15.208500	 5.323790	 0.000000	 0.000000	 0.000000	 0.000000	 0.000000	 0.000000	 0.000000
 0.439323	 1.282355	 0.477667	 0.773115	-4.538759	-177.029300	 176.028100	 9.377183	 14.287080	 3.308421	-12.256320	 6.472480	 5.221230	 68.195490	-2.288990	 1.292262	 28.425850	-2.713146	-179.785300	 10.488920	-12.001950	-0.965243	-5.008899	 0.236054	 0.860102	 60.610200	-4.417501	-1.288183	 28.361890	 2.710176	-0.801345	 5.845376	-8.924017	 2.444883	-2.497426	-4.465985	-1.259777	 3.151088	 12.946530	-119.800900	-1.486973	 89.626100	-4.307918	 4.169126	-0.712539	 45.039230	-3.065871	 30.108700	-33.447240	 13.379050	-11.184290	-6.580301	 5.266122	 0.000000	 0.000000	 0.000000	 0.000000	 0.000000	 0.000000	 0.000000	 6.535529	 32.224460	 0.242721	-3.843648	-19.965610	 3.924336	 119.982200	-1.447556	-90.186410	-0.833248	 9.969172	 15.617530	-28.829780	 0.986084	-53.175100	-29.929400	-11.459950	-9.382265	 15.208500	 5.323790	 0.000000	 0.000000	 0.000000	 0.000000	 0.000000	 0.000000	 0.000000
 0.439466	 1.282850	 0.485060	 0.836602	-5.554718	-176.923900	 175.899400	 11.054950	 14.501260	 3.468614	-12.829850	 6.749684	 5.165667	 68.170080	-2.766483	 1.292262	 28.425850	-2.713146	-179.800800	 11.859420	-11.917350	-0.964202	-5.003457	-0.097793	 0.740755	 60.233250	-3.794864	-1.288183	 28.361890	 2.710176	-0.728331	 6.360034	-8.098766	 1.993701	-2.252968	-4.045586	-0.891686	 3.887815	 11.583340	-120.901500	-1.813971	 89.460190	-3.050335	 6.723816	 3.391484	 45.542420	-3.006920	 27.755460	-29.516480	 8.806396	-11.871050	-6.580301	 5.266122	 0.000000	 0.000000	 0.000000	 0.000000	 0.000000	 0.000000	 0.000000	 7.442994	 34.608820	-0.542460	-3.924708	-21.235760	 3.778527	 121.719300	-1.911436	-89.984470	-2.967474	 12.135380	 14.356380	-27.881280	 1.112755	-52.018690	-27.543950	-10.554780	-12.051710	 15.208500	 5.323790	 0.000000	 0.000000	 0.000000	 0.000000	 0.000000	 0.000000	 0.000000
 0.439895	 1.283843	 0.493256	 0.907375	-6.787683	-176.802800	 175.823200	 12.890530	 14.722850	 3.544063	-13.099050	 7.051787	 5.088772	 67.924930	-3.263966	 1.292262	 28.425850	-2.713146	-179.820500	 13.513890	-11.808150	-0.962910	-4.996776	-0.479514	 0.638856	 59.783320	-3.102365	-1.288183	 28.361890	 2.710176	-0.634072	 7.099944	-7.042366	 1.545506	-2.243708	-3.506170	-0.514399	 5.229104	 9.886321	-122.218000	-2.200380	 89.253750	 0.058002	 8.978353	 7.130426	 44.282590	-2.844271	 25.090680	-24.158820	 4.609907	-11.391310	-6.580301	 5.266122	 0.000000	 0.000000	 0.000000	 0.000000	 0.000000	 0.000000	 0.000000	 8.616798	 37.440960	-1.573701	-4.033584	-22.701190	 3.586675	 123.797100	-2.457184	-89.724850	-7.083432	 13.555840	 13.388460	-24.761790	 1.218782	-51.036640	-25.122040	-9.627551	-13.881770	 15.208500	 5.323790	 0.000000	 0.000000	 0.000000	 0.000000	 0.000000	 0.000000	 0.000000
 0.440739	 1.285406	 0.505718	 0.942038	-8.965353	-176.576700	 175.519800	 16.049450	 14.927020	 3.616848	-13.358190	 8.080973	 6.019248	 67.277250	-5.350698	 1.292262	 28.425850	-2.713146	-179.999800	 16.459280	-11.252380	-0.960672	-4.985263	-1.406060	-0.006737	 59.081760	-1.414410	-1.288183	 28.361890	 2.710176	-0.403254	 7.736442	-5.703343	 1.133692	-2.551805	-2.785852	-0.180229	 6.300049	 7.593248	-122.938400	-0.224743	 90.261380	 1.401095	 12.820260	 9.652140	 43.858580	-2.722831	 22.956100	-17.757890	-0.914718	-9.583212	-6.580301	 5.266122	 0.000000	 0.000000	 0.000000	 0.000000	 0.000000	 0.000000	 0.000000	 9.239552	 37.740890	-2.326536	-4.045190	-23.552060	 3.006120	 124.964100	-0.826646	-90.607890	-9.618603	 16.797890	 12.045780	-22.528890	 1.344595	-48.430010	-22.679140	-9.744975	-14.774490	 15.208500	 5.323790	 0.000000	 0.000000	 0.000000	 0.000000	 0.000000	 0.000000	 0.000000
